<svg xmlns="http://www.w3.org/2000/svg">
  <symbol viewBox="0 0 74 23" id="logo">
    <path d="M0 1.55A1.29 1.29 0 0 1 1.26.26h7.13c5.06 0 8.39 2.7 8.39 7.13v.06c0 4.85-4.04 7.36-8.8 7.36H2.53v6.8A1.28 1.28 0 0 1 1.27 23 1.27 1.27 0 0 1 0 21.61V1.55Zm8.07 10.97c3.7 0 6.14-2 6.14-4.99v-.06c0-3.2-2.4-4.87-5.96-4.87H2.6v9.88l5.48.04ZM21.6 1.39A1.28 1.28 0 0 1 22.85 0a1.27 1.27 0 0 1 1.27 1.39V21.6A1.28 1.28 0 0 1 22.86 23a1.27 1.27 0 0 1-1.27-1.39V1.4ZM30.67 1.42A1.28 1.28 0 0 1 31.93.17h.34a1.54 1.54 0 0 1 1.29.74l13.6 17.4V1.36A1.24 1.24 0 0 1 48.39.12a1.23 1.23 0 0 1 1.23 1.24v20.3a1.14 1.14 0 0 1-1.15 1.17h-.13a1.7 1.7 0 0 1-1.31-.78L33.12 4.25v17.4a1.26 1.26 0 0 1-1.2 1.25 1.23 1.23 0 0 1-1.2-1.25V1.42h-.05ZM55.94 1.39A1.28 1.28 0 0 1 57.2 0a1.27 1.27 0 0 1 1.26 1.39v12.3L71.23.54c.26-.27.62-.43 1-.45a1.27 1.27 0 0 1 1.21 1.26 1.29 1.29 0 0 1-.41.9l-7.95 7.9 8.57 10.52c.23.26.35.6.35.94a1.31 1.31 0 0 1-1.34 1.28 1.23 1.23 0 0 1-1-.58L63.3 11.86l-4.83 4.85v4.88a1.27 1.27 0 0 1-1.26 1.27 1.26 1.26 0 0 1-1.26-1.27V1.4h-.01Z" fill="currentColor"/>
  </symbol>
  <symbol viewBox="0 0 145 40" id="logo-secondary">
    <path fill-rule="evenodd" clip-rule="evenodd" d="m53.892 6.586 5.038 21.145a1.418 1.418 0 0 1-.22 1.297 1.356 1.356 0 0 1-1.183.535H53.52c-.69 5.812-5.57 10.315-11.489 10.315-5.917 0-10.798-4.503-11.488-10.314h-1.965C27.887 35.442 22.953 40 16.968 40c-5.994 0-10.934-4.573-11.612-10.466H1.45a1.364 1.364 0 0 1-1.154-.536 1.418 1.418 0 0 1-.24-1.267L5.106 6.586C5.455 4.26 7.639 0 13.486 0c.388 0 .76.157 1.034.435.274.279.428.657.428 1.05 0 .395-.154.772-.428 1.051a1.45 1.45 0 0 1-1.034.435c-4.707 0-5.438 3.694-5.497 4.1L3.341 26.602h2.034c.746-5.817 5.652-10.31 11.593-10.31 5.939 0 10.843 4.488 11.593 10.3l1.998.01c.745-5.75 5.598-10.189 11.473-10.189 5.886 0 10.746 4.456 11.477 10.222v-.053h2.137l-4.639-19.51c-.068-.407-.77-4.1-5.497-4.1a1.45 1.45 0 0 1-1.033-.436 1.498 1.498 0 0 1-.428-1.05c0-.394.154-.772.428-1.05A1.45 1.45 0 0 1 45.51 0c5.848 0 8.03 4.259 8.382 6.586Zm-28.22 22.977a9.122 9.122 0 0 0-.022-2.97c-.725-4.195-4.336-7.383-8.681-7.383-4.349 0-7.961 3.192-8.683 7.391a9.114 9.114 0 0 0-.025 2.94c.66 4.273 4.308 7.541 8.707 7.541 4.392 0 8.034-3.257 8.704-7.518Zm24.942 0c.073-.461.112-.934.112-1.417 0-4.868-3.893-8.815-8.694-8.815-4.802 0-8.695 3.947-8.695 8.815 0 .482.039.956.112 1.418.669 4.194 4.257 7.397 8.583 7.397 4.325 0 7.913-3.203 8.582-7.397Z" />
    <path d="M71.005 18.549c0-.337.13-.66.365-.9.234-.24.552-.379.887-.387h7.133c5.057 0 8.385 2.703 8.385 7.13v.06c0 4.846-4.034 7.358-8.802 7.358h-5.435v6.801a1.282 1.282 0 0 1-.754 1.28 1.27 1.27 0 0 1-1.717-.758 1.282 1.282 0 0 1-.062-.522V18.549Zm8.067 10.968c3.706 0 6.14-1.994 6.14-4.986v-.06c0-3.21-2.395-4.875-5.961-4.875h-5.663v9.881l5.484.04ZM92.594 18.389a1.282 1.282 0 0 1 .754-1.28 1.269 1.269 0 0 1 1.717.758c.056.168.077.346.062.522v20.222a1.282 1.282 0 0 1-.754 1.28 1.27 1.27 0 0 1-1.717-.758 1.282 1.282 0 0 1-.063-.522V18.389ZM101.674 18.419a1.278 1.278 0 0 1 1.252-1.247h.347a1.535 1.535 0 0 1 1.282.738l13.601 17.4V18.36c0-.329.13-.643.361-.875a1.229 1.229 0 0 1 1.742 0c.231.232.361.546.361.874v20.292c.005.154-.021.308-.076.452a1.13 1.13 0 0 1-1.077.725h-.129a1.69 1.69 0 0 1-1.311-.778l-13.909-17.81v17.41a1.257 1.257 0 0 1-1.192 1.247 1.23 1.23 0 0 1-1.212-1.246V18.419h-.04ZM126.938 18.389a1.284 1.284 0 0 1 .755-1.28 1.267 1.267 0 0 1 1.45.306 1.287 1.287 0 0 1 .329.974v12.295l12.756-13.133c.262-.271.617-.432.994-.448.325.012.633.15.86.383.227.234.357.546.362.873a1.28 1.28 0 0 1-.418.897l-7.948 7.898 8.574 10.53c.224.26.348.593.348.937a1.309 1.309 0 0 1-1.341 1.276 1.228 1.228 0 0 1-.994-.578l-8.365-10.46-4.828 4.846v4.886a1.278 1.278 0 0 1-.37.895 1.26 1.26 0 0 1-2.154-.895V18.389h-.01Z" fill="currentColor"/>
  </symbol>
  <symbol viewBox="0 0 147 40" id="logo-tertiary">
    <path d="M72.193 18.425c0-.333.133-.652.369-.89.237-.238.558-.376.897-.384h7.211c5.113 0 8.477 2.676 8.477 7.06v.06c0 4.798-4.078 7.286-8.899 7.286h-5.494v6.734a1.243 1.243 0 0 1-.332.965 1.286 1.286 0 0 1-.948.41 1.304 1.304 0 0 1-.949-.41 1.26 1.26 0 0 1-.332-.965V18.425Zm8.156 10.861c3.746 0 6.207-1.975 6.207-4.937v-.059c0-3.18-2.42-4.828-6.026-4.828h-5.725v9.785l5.544.04ZM94.019 18.267a1.243 1.243 0 0 1 .332-.965 1.286 1.286 0 0 1 .948-.41 1.304 1.304 0 0 1 .949.41 1.258 1.258 0 0 1 .332.965V38.29a1.245 1.245 0 0 1-.332.965 1.284 1.284 0 0 1-.949.41 1.304 1.304 0 0 1-.948-.41 1.26 1.26 0 0 1-.332-.965V18.267ZM103.199 18.297a1.25 1.25 0 0 1 .38-.868c.236-.23.553-.362.885-.367h.352c.261.005.516.075.743.203.226.127.416.31.552.528l13.751 17.23V18.237c0-.324.131-.636.364-.865a1.259 1.259 0 0 1 1.762 0c.233.23.364.54.364.865v20.094a1.117 1.117 0 0 1-.711 1.082 1.161 1.161 0 0 1-.454.083h-.13a1.739 1.739 0 0 1-.756-.23 1.709 1.709 0 0 1-.57-.54L105.67 21.09v17.24a1.238 1.238 0 0 1-.353.853c-.224.23-.529.366-.853.381a1.257 1.257 0 0 1-.871-.369 1.21 1.21 0 0 1-.354-.865V18.296h-.04ZM128.74 18.267a1.243 1.243 0 0 1 .332-.965 1.287 1.287 0 0 1 .949-.41 1.304 1.304 0 0 1 .948.41 1.247 1.247 0 0 1 .332.965v12.175l12.897-13.005c.264-.269.624-.428 1.004-.444.329.013.64.149.87.38.23.232.361.54.365.864a1.261 1.261 0 0 1-.421.889l-8.036 7.82 8.668 10.427c.227.258.352.587.352.928a1.287 1.287 0 0 1-.847 1.18 1.261 1.261 0 0 1-1.083-.08 1.23 1.23 0 0 1-.43-.409l-8.457-10.357-4.882 4.798v4.839a1.238 1.238 0 0 1-.373.886 1.282 1.282 0 0 1-.902.368 1.288 1.288 0 0 1-.902-.368 1.244 1.244 0 0 1-.374-.886V18.267h-.01Z" fill="currentColor"/>
    <path d="M98.94 9.746a3.678 3.678 0 0 1-2.575-1.047 3.554 3.554 0 0 1-1.07-2.528c0 .948-.384 1.857-1.066 2.528a3.668 3.668 0 0 1-2.57 1.047c.964.002 1.89.381 2.57 1.053a3.554 3.554 0 0 1 1.065 2.53c.003-.949.388-1.86 1.07-2.53a3.688 3.688 0 0 1 2.576-1.053Z" fill="#D22856"/>
    <path d="M43.287 19.067h.733a2.47 2.47 0 0 0-.905-.887 2.523 2.523 0 0 0-1.234-.328c-.418 0-.826-.129-1.166-.368a1.978 1.978 0 0 1-.732-.965c-.724.206-1.427.477-2.1.81h.191c.533 0 1.044.208 1.42.578.377.37.59.873.59 1.397.004.095.004.19 0 .286a8.976 8.976 0 0 1 3.203-.523Z" />
    <path d="m60.733 27.647-5.192-21.08C55.179 4.245 52.929 0 46.903 0c-.4 0-.783.156-1.066.434a1.469 1.469 0 0 0-.44 1.047c0 .393.158.77.44 1.047a1.52 1.52 0 0 0 1.066.434c4.871 0 5.594 3.683 5.665 4.088l4.78 19.452H55.25a11.721 11.721 0 0 0-1.724-4.78 11.946 11.946 0 0 0-3.599-3.633 2.502 2.502 0 0 0-1.116.908c-.274.404-.42.878-.42 1.363.005.086.005.171 0 .257a9.148 9.148 0 0 1 2.922 3.207 8.974 8.974 0 0 1 1.095 4.169 9.042 9.042 0 0 1-.14 1.48 8.849 8.849 0 0 1-3.05 5.393 9.132 9.132 0 0 1-5.885 2.141 9.132 9.132 0 0 1-5.885-2.141 8.849 8.849 0 0 1-3.049-5.392 9.031 9.031 0 0 1-.14-1.481c.015-1.37.341-2.72.954-3.95a2.023 2.023 0 0 1-1.33-.625 1.957 1.957 0 0 1-.538-1.35.694.694 0 0 0-.191-.483 11.566 11.566 0 0 0-1.798 4.936h-1.868a11.782 11.782 0 0 0-3.933-7.54 12.17 12.17 0 0 0-8.05-3.03 12.17 12.17 0 0 0-8.05 3.03 11.782 11.782 0 0 0-3.932 7.54H3.443L8.233 7.05c.061-.405.814-4.088 5.666-4.088.4 0 .783-.156 1.065-.434.282-.277.441-.654.441-1.047 0-.393-.159-.77-.441-1.047A1.52 1.52 0 0 0 13.899 0C7.872 0 5.623 4.246 5.26 6.566L.058 27.647a1.38 1.38 0 0 0 .247 1.263c.14.176.322.316.529.41.207.092.433.135.66.124h4.018c.082.611.21 1.215.382 1.807a.731.731 0 0 0 .1-.355c0-.524.212-1.026.589-1.397.376-.37.887-.578 1.42-.578.163.002.325.025.482.069a8.835 8.835 0 0 1-.07-1.037c.002-.496.046-.991.13-1.48a8.848 8.848 0 0 1 3.042-5.414 9.131 9.131 0 0 1 5.897-2.152c2.165 0 4.258.763 5.898 2.152a8.848 8.848 0 0 1 3.041 5.413c.085.49.128.985.131 1.481a8.87 8.87 0 0 1-2.665 6.267 9.18 9.18 0 0 1-6.374 2.62 9.146 9.146 0 0 1-5.454-1.708c-.363.31-.826.48-1.306.483a.76.76 0 0 0-.526.22.734.734 0 0 0-.217.521 1.946 1.946 0 0 1-.181.8 12.088 12.088 0 0 0 7.643 2.705 12.174 12.174 0 0 0 8.012-2.951 11.789 11.789 0 0 0 4-7.436h1.829a11.784 11.784 0 0 0 3.944 7.51A12.171 12.171 0 0 0 43.292 40c2.964 0 5.823-1.073 8.033-3.015a11.784 11.784 0 0 0 3.944-7.511h4.018c.232.016.465-.024.678-.117.212-.093.398-.236.541-.417a1.38 1.38 0 0 0 .227-1.293Z" />
    <path d="M50.92 15.917a4.576 4.576 0 0 1-1.729-.335 4.515 4.515 0 0 1-1.466-.96 4.431 4.431 0 0 1-.98-1.44 4.37 4.37 0 0 1-.344-1.699 4.406 4.406 0 0 1-1.328 3.136 4.56 4.56 0 0 1-3.192 1.298 4.57 4.57 0 0 1 3.193 1.304 4.416 4.416 0 0 1 1.327 3.14c0-1.18.476-2.31 1.323-3.143a4.56 4.56 0 0 1 3.196-1.301ZM38.074 19.383a2.786 2.786 0 0 1-1.953-.796 2.692 2.692 0 0 1-.809-1.92c0 .719-.29 1.408-.805 1.917a2.786 2.786 0 0 1-1.947.799c.73 0 1.43.285 1.946.792.516.507.806 1.196.806 1.913a2.693 2.693 0 0 1 .813-1.914 2.786 2.786 0 0 1 1.95-.791ZM10.785 33.64a2.786 2.786 0 0 1-1.94-.802 2.692 2.692 0 0 1-.802-1.913c0 .719-.29 1.408-.805 1.917a2.786 2.786 0 0 1-1.947.799c.73.002 1.43.29 1.947.799.515.508.805 1.198.805 1.916 0-.717.288-1.404.802-1.913a2.786 2.786 0 0 1 1.94-.802Z" fill="var(--stars-color)"/>
  </symbol>
  <symbol viewBox="0 0 47 56" id="apple-logo">
    <path d="M39.24 29.74c.01 2.41.75 4.77 2.13 6.79A12.67 12.67 0 0 0 47 41.06a29.8 29.8 0 0 1-4 7.96c-2.4 3.42-4.9 6.82-8.84 6.9-3.94.1-5.1-2.21-9.53-2.21-4.44 0-5.8 2.15-9.46 2.29-3.67.13-6.7-3.72-9.1-7.12-4.95-6.9-8.75-19.63-3.66-28.2 1.2-2.07 2.93-3.8 5.03-5.03a14.49 14.49 0 0 1 6.93-1.98c3.73-.07 7.25 2.43 9.53 2.43 2.28 0 6.56-3.01 11.06-2.57 2.08.08 4.12.62 5.95 1.58 1.84.96 3.41 2.32 4.61 3.98-.27.16-6.3 3.57-6.24 10.65h-.04Zm-7.26-20.8a12.07 12.07 0 0 0 3-8.94c-3.3.3-6.36 1.82-8.55 4.24-1.86 2.1-3.5 5.45-3.05 8.66 3.25.25 6.55-1.6 8.57-3.94" fill="#ffffff"/>
  </symbol>
  <symbol viewBox="0 0 43 47" id="android-logo">
    <path d="M34.89 14.06H8.1V33.2c0 .92.34 1.8.96 2.47a3.7 3.7 0 0 0 2.43 1.16v7.46c.04.73.37 1.42.92 1.93a2.99 2.99 0 0 0 4.05 0c.55-.5.88-1.2.92-1.93v-7.44h8.24v7.44c.04.73.37 1.42.92 1.93a2.99 2.99 0 0 0 4.05 0c.55-.5.88-1.2.92-1.93v-7.46a3.7 3.7 0 0 0 2.43-1.16c.63-.67.97-1.55.97-2.46V14.4l-.03-.34ZM2.95 15.74c.78 0 1.53.3 2.08.85.56.54.87 1.27.87 2.04v12.4a2.84 2.84 0 0 1-.86 2.05 2.95 2.95 0 0 1-2.09.85c-.78 0-1.53-.3-2.09-.85A2.87 2.87 0 0 1 0 31.03v-12.4a2.84 2.84 0 0 1 .87-2.04 2.95 2.95 0 0 1 2.08-.85ZM40.06 15.74c.78 0 1.53.3 2.08.85.55.54.86 1.27.86 2.04v12.4a2.84 2.84 0 0 1-.86 2.05 2.95 2.95 0 0 1-2.08.85c-.79 0-1.54-.3-2.1-.85a2.87 2.87 0 0 1-.86-2.05v-12.4a2.84 2.84 0 0 1 .87-2.04 2.95 2.95 0 0 1 2.09-.85ZM8.17 12.06h26.57a10.4 10.4 0 0 0-3.26-7.3L34.05.5a.3.3 0 0 0-.12-.46.32.32 0 0 0-.42.1L31.09 4.3A16.7 16.7 0 0 0 21.46.9a16.98 16.98 0 0 0-9.58 3.4L9.5.2a.32.32 0 0 0-.18-.16.33.33 0 0 0-.25 0 .31.31 0 0 0-.11.42l2.5 4.25a10.44 10.44 0 0 0-3.29 7.36Zm17.7-5.21c0-.4.17-.78.45-1.06a1.55 1.55 0 0 1 2.17 0 1.49 1.49 0 0 1 0 2.12 1.55 1.55 0 0 1-2.17 0 1.49 1.49 0 0 1-.45-1.06Zm-11.38 0c0-.4.16-.78.45-1.06a1.55 1.55 0 0 1 2.17 0 1.49 1.49 0 0 1 0 2.12 1.55 1.55 0 0 1-2.17 0 1.49 1.49 0 0 1-.45-1.06Z" fill="#a4c639"/>
  </symbol>
  <symbol viewBox="0 0 44 41" id="microsoft-logo">
    <path d="M20.9 19.52H0V0h20.9v19.52Z" fill="#F05423"/>
    <path d="M44 19.52H23.1V0H44v19.52Z" fill="#84C441"/>
    <path d="M20.9 41H0V21.48h20.9V41Z" fill="#2DABE2"/>
    <path d="M44 41H23.1V21.48H44V41Z" fill="#F9BC15"/>
  </symbol>
  <symbol viewBox="0 0 18 14" id="twitter">
    <path d="M11.564.169A3.675 3.675 0 0 1 13.672.14c.688.196 1.291.59 1.723 1.122.71-.21 1.41-.447 2.131-.656a2.03 2.03 0 0 1-.253.917c-.157.284-.38.533-.653.729.253.026.508-.002.747-.081.24-.08.456-.208.633-.376-.099.414-.3.801-.588 1.131-.287.33-.653.594-1.07.772-.247 6.27-3.367 10.467-10.689 10.296H5.15c-.443 0-4.418-.428-5.149-1.75 1.752.245 3.539-.147 4.984-1.095-1.03-.286-2.852-.447-3.161-2.74.388.133.81.163 1.215.085C1.76 7.705.34 7.039.422 4.993c.398.306.905.462 1.421.438C1.102 5.203-.247 2.31.896.825c1.926 1.723 3.964 3.35 7.59 3.512C8.711 2.205 9.69.777 11.563.169Z" />
  </symbol>
  <symbol viewBox="0 0 9 18" id="facebook">
    <path d="M6.509 3.193H9V0H6.02C2.762.171 1.6 2.271 2.077 5.816H0v3.336h2.076V18h3.945V9.152h2.958V5.816H6.01c-.02-.998-.041-2.29.499-2.623Z" />
  </symbol>
  <symbol viewBox="0 0 15 13" id="youtube">
    <path d="M1.83 12.8a1.25 1.25 0 0 1-1.28.04 1.1 1.1 0 0 1-.44-.46.97.97 0 0 1-.1-.6V1.22c-.03-.2 0-.41.1-.6C.2.42.35.27.55.16a1.26 1.26 0 0 1 1.28.03l12.4 5.5c1.03.45 1.03 1.17 0 1.62l-12.4 5.5Z" />
  </symbol>
  <symbol viewBox="0 0 27 34" id="htmlacademy-logo">
    <path d="M13.6426.0158 13.5 0 0 1.4073V26.013L13.5 34 27 26.0129V1.4073L13.6426.0158ZM25.2344 25.015 13.5 31.9573 1.7656 25.0151V14.9293l11.6851 6.9158.0194 1.2533-8.0166-4.7436-.0106 1.2253 8.0465 4.8084.0194 1.2865-8.0447-4.7576-.0106 1.2253L13.5 26.9511l8.1239-4.8329V16.909l3.6193-2.1495-.0088 10.2556Zm0-11.5632-3.2197 1.88-1.4822.8752-7.0659-4.187-.0106 1.2253 6.0397 3.5726-.0528.0315-.1303.0752-.859.4919-4.987-2.9477-.0106 1.2253 3.9361 2.328-.933.6092-.0211.0122-2.9714-1.7416-.0106 1.2253 1.9469 1.1342-1.9874 1.1868-11.6182-6.8721 11.6376-6.9579 11.7995 6.8336Zm0-1.2253L13.4401 5.3108 1.7656 12.2195V2.9897L13.5 1.7644l11.7344 1.2253v9.2369Z" />
  </symbol>
  <symbol viewBox="0 0 13 12" id="heart">
    <path d="M6.469 12a.782.782 0 0 1-.58-.25C1.958 7.42 1.036 6.44.86 6.17A3.765 3.765 0 0 1 0 3.8a3.723 3.723 0 0 1 .63-2.045A3.921 3.921 0 0 1 2.3.355 4.09 4.09 0 0 1 4.487.035 4.031 4.031 0 0 1 6.51.9 4.08 4.08 0 0 1 9.07 0a4.013 4.013 0 0 1 2.78 1.117A3.733 3.733 0 0 1 13 3.8a3.409 3.409 0 0 1-.923 2.38l-5.038 5.56a.757.757 0 0 1-.57.25V12ZM2.073 5.28c.218.26 2.56 2.84 4.396 4.86l4.478-4.94a1.96 1.96 0 0 0 .539-1.4c0-.618-.254-1.21-.707-1.648A2.461 2.461 0 0 0 9.07 1.47c-.38.003-.756.09-1.097.252-.341.163-.64.398-.873.688a.844.844 0 0 1-.612.28.757.757 0 0 1-.332-.082.729.729 0 0 1-.258-.218 2.43 2.43 0 0 0-.868-.682 2.49 2.49 0 0 0-2.372.132 2.369 2.369 0 0 0-.882.968 2.267 2.267 0 0 0 .296 2.462v.01Z" />
  </symbol>
  <symbol viewBox="0 0 44 44" id="crop">
    <path d="M32 28h4V12a4 4 0 0 0-4-4H16v4h16v16Zm-20 4V0H8v8H0v4h8v20a4 4 0 0 0 4 4h20v8h4v-8h8v-4H12Z"/>
  </symbol>
  <symbol viewBox="0 0 48 43" id="fill">
    <path d="M33.12 17.88 15.24 0l-2.83 2.83 4.76 4.76L6.88 17.88a3 3 0 0 0 0 4.24l11 11a3 3 0 0 0 4.24 0l11-11a3 3 0 0 0 0-4.24ZM10.41 20 20 10.42 29.59 20H10.41ZM38 23s-4 4.33-4 7a4 4 0 1 0 8 0c0-2.67-4-7-4-7ZM48 40H0v3h48v-3Z"/>
  </symbol>
  <symbol viewBox="0 0 32 32" id="contrast">
    <path d="M16 4a12 12 0 1 1 0 24 12 12 0 0 1 0-24Zm0-4a16 16 0 1 0 0 32 16 16 0 0 0 0-32Z"/>
    <path d="M16 24.29a8.52 8.52 0 0 0 0-17"/>
  </symbol>
</svg>
